# Blender v3.0.0 OBJ File: 'Jeff Bezos.blend'
# www.blender.org
mtllib Jeff Bezos.mtl
o Cube
v 0.300000 0.901376 -0.010000
v 0.300000 0.900681 0.010000
v -0.116736 1.455583 0.010000
v -0.116517 1.455987 -0.010000
v -0.064745 0.000000 -0.010000
v -0.065065 0.000000 0.010000
v -0.109751 1.461295 -0.010000
v -0.110056 1.460823 0.010000
v -0.109602 1.446084 0.010000
v -0.109292 1.446365 -0.010000
v -0.067186 1.494684 -0.010000
v -0.068032 1.493787 0.010000
v -0.111617 1.511504 0.010000
v -0.111332 1.512630 -0.010000
v -0.210769 0.000000 -0.010000
v 0.074341 1.201851 -0.010000
v -0.214090 0.000000 0.010000
v 0.071692 1.204683 0.010000
v -0.082189 0.556015 0.010000
v -0.081525 0.544814 -0.010000
v 0.121954 1.416559 0.010000
v 0.125252 1.416459 -0.010000
v 0.108001 1.632106 -0.010000
v 0.104767 1.629336 0.010000
v 0.024873 1.676288 0.010000
v 0.028712 1.678702 -0.010000
v -0.229933 1.366787 0.010000
v -0.226782 1.369492 -0.010000
v -0.112841 1.551241 0.010000
v -0.112470 1.549566 -0.010000
v -0.056235 1.640411 0.010000
v -0.053609 1.642288 -0.010000
v 0.229344 0.995457 -0.010000
v 0.171400 1.397700 -0.010000
v 0.222423 1.003978 0.010000
v 0.165542 1.398840 0.010000
v 0.147486 1.524185 0.010000
v 0.152283 1.530407 -0.010000
v 0.140374 1.613082 -0.010000
v 0.134888 1.611635 0.010000
v 0.300000 1.011633 -0.010000
v 0.300000 1.002845 0.010000
v 0.053273 1.588943 0.010000
v 0.133594 1.465627 0.010000
v 0.055451 1.590884 -0.010000
v 0.005065 1.668242 -0.010000
v 0.002754 1.666504 0.010000
v 0.181255 1.392453 0.010000
v 0.136948 1.465763 -0.010000
v 0.184838 1.392238 -0.010000
v 0.234268 1.311064 0.010000
v 0.235378 1.314644 -0.010000
v 0.105747 0.000000 0.010000
v 0.300000 0.903231 -0.010000
v 0.300000 0.901177 -0.004272
v 0.299688 0.901792 -0.010000
v 0.104192 0.000000 -0.010000
v 0.300000 0.896057 0.010000
v 0.262733 0.724151 0.010000
v 0.265533 0.744240 -0.010000
v 0.173525 0.000000 0.010000
v 0.251875 0.964761 0.010000
v 0.243294 0.859097 0.010000
v 0.271703 1.144317 -0.010000
v 0.267387 1.155768 0.010000
v 0.256660 0.959085 -0.010000
v 0.178771 0.000000 -0.010000
v 0.248701 0.861084 -0.010000
v 0.223445 0.550097 -0.010000
v 0.214125 0.499930 0.010000
v -0.284501 0.000000 -0.010000
v -0.209015 1.383429 -0.010000
v -0.283305 0.000000 0.010000
v -0.207778 1.384166 0.010000
v -0.300000 0.832396 -0.010000
v -0.162426 0.000000 0.010000
v -0.163923 0.000000 -0.010000
v -0.183504 0.128935 0.010000
v -0.183035 0.116908 -0.010000
v -0.300000 0.841557 0.010000
v -0.253055 0.554387 0.010000
v -0.254327 0.553007 -0.010000
v -0.300000 1.163793 0.010000
v -0.219212 1.375197 0.010000
v -0.221564 1.373586 -0.010000
v -0.300000 1.168334 -0.010000
vt 0.601394 0.137133
vt 0.601664 0.128353
vt 0.605643 0.131475
vt 0.113605 0.138403
vt 0.109300 0.132671
vt 0.113331 0.129509
vt 0.726662 0.248764
vt 0.718202 0.245693
vt 0.726673 0.246010
vt 0.130145 0.675455
vt 0.222994 0.284060
vt 0.585066 0.667345
vt 0.493408 0.280934
vt 0.756564 0.071828
vt 0.756564 0.130908
vt 0.744650 0.130718
vt 0.744650 0.072720
vt 0.069676 0.930358
vt 0.140141 1.000000
vt 0.081061 1.000000
vt 0.576634 0.108716
vt 0.602594 0.098162
vt 0.463470 0.154720
vt 0.112389 0.098929
vt 0.138687 0.109619
vt 0.253322 0.156218
vt 0.391195 0.486798
vt 0.386084 0.423854
vt 0.403627 0.400493
vt 0.437507 0.165274
vt 0.632858 0.998563
vt 0.645413 0.921757
vt 0.663631 0.998563
vt 0.326860 0.487054
vt 0.315330 0.407008
vt 0.331601 0.428675
vt 0.280812 0.167392
vt 0.756564 0.000000
vt 0.756564 0.043922
vt 0.744650 0.041944
vt 0.744650 0.000713
vt 0.211742 0.052313
vt 0.181726 0.006231
vt 0.195813 0.000000
vt 0.243046 0.027757
vt 0.504379 0.052031
vt 0.473707 0.027969
vt 0.521296 0.000000
vt 0.534470 0.005828
vt 0.027208 0.670575
vt 0.054199 0.175894
vt 0.260289 0.126848
vt 0.262330 0.039090
vt 0.269424 0.088339
vt 0.456537 0.125490
vt 0.448262 0.090607
vt 0.455766 0.038513
vt 0.408569 0.700753
vt 0.379617 0.567185
vt 0.714807 0.244460
vt 0.715059 0.179893
vt 0.726910 0.185158
vt 0.288817 0.170646
vt 0.318924 0.216869
vt 0.340563 0.318332
vt 0.376845 0.310071
vt 0.396572 0.217562
vt 0.428148 0.169079
vt 0.111711 0.076926
vt 0.146775 0.021692
vt 0.569607 0.021373
vt 0.603323 0.074491
vt 0.311816 0.672308
vt 0.336887 0.556657
vt 0.730053 0.485490
vt 0.730928 0.783631
vt 0.718793 0.783552
vt 0.717830 0.455493
vt 0.728133 0.351495
vt 0.716168 0.339473
vt 0.714819 0.245320
vt 0.714803 0.245565
vt 0.756564 0.231544
vt 0.744650 0.232470
vt 0.432753 0.998561
vt 0.473124 0.998561
vt 0.240776 1.000000
vt 0.285203 1.000000
vt 0.357233 0.462804
vt 0.357419 0.397372
vt 0.357419 0.461947
vt 0.574866 0.998562
vt 0.357419 0.464780
vt 0.357419 0.462026
vt 0.357419 0.401167
vt 0.756564 0.275970
vt 0.744650 0.272845
vt 0.686840 0.668316
vt 0.704858 0.998564
vt 0.009233 1.000000
vt 0.053155 1.000000
vt 0.659872 0.174018
vt 0.000000 0.504143
vt 0.000000 0.304025
vt 0.046724 0.181757
vt 0.666682 0.179361
vt 0.714803 0.305295
vt 0.714803 0.497250
vt 0.731582 0.382777
vt 0.730928 0.193428
vt 0.742830 0.190761
vt 0.743512 0.388161
vt 0.730928 0.583839
vt 0.742971 0.581931
vt 0.745733 0.636919
vt 0.733670 0.638411
vt 0.746775 0.657650
vt 0.734789 0.660691
vt 0.745523 0.275970
vt 0.757665 0.276934
vt 0.756742 0.328905
vt 0.744650 0.325104
vt 0.745205 0.363748
vt 0.757244 0.363912
vt 0.757665 0.393244
vt 0.745628 0.393222
vt 0.743404 0.688616
vt 0.731344 0.691578
vt 0.732772 0.662013
vt 0.744753 0.660691
vt 0.742918 0.698683
vt 0.730928 0.700187
vt 0.744753 0.748555
vt 0.732678 0.747734
vt 0.728904 0.094370
vt 0.716789 0.101120
vt 0.719009 0.000000
vt 0.730928 0.002174
vt 0.687765 0.669129
vt 0.705738 0.998554
vt 0.732752 0.546926
vt 0.744650 0.547863
vt 0.743394 0.062479
vt 0.731392 0.067291
vt 0.743337 0.065395
vt 0.731509 0.061301
vt 0.731634 0.054912
vt 0.732736 0.008922
vt 0.732627 0.004039
vt 0.732700 0.000306
vt 0.744650 0.008727
vt 0.744614 0.000000
vt 0.744540 0.003781
vt 0.743531 0.055467
vt 0.756882 0.536648
vt 0.744994 0.537688
vt 0.744994 0.514030
vt 0.744994 0.483857
vt 0.744650 0.480677
vt 0.744994 0.475082
vt 0.756882 0.475206
vt 0.756533 0.480874
vt 0.756882 0.484095
vt 0.756882 0.514657
vt 0.756785 0.393245
vt 0.756575 0.453490
vt 0.756785 0.475082
vt 0.744650 0.452608
vt 0.744852 0.394670
vt 0.732037 0.573907
vt 0.734789 0.549261
vt 0.746775 0.547863
vt 0.744008 0.572641
vn 0.0000 0.0000 1.0000
vn 0.0000 0.0000 -1.0000
vn 1.0000 0.0000 0.0000
vn 0.0000 -1.0000 0.0000
vn 0.9643 -0.0783 0.2529
vn 0.9745 -0.2114 -0.0758
vn -1.0000 0.0000 0.0000
vn 0.4967 0.8452 0.1974
vn 0.9527 0.1372 0.2712
vn 0.9605 -0.2279 0.1595
vn 0.3760 0.9249 0.0574
vn 0.8293 0.5402 0.1427
vn 0.9739 0.2077 0.0913
vn 0.9985 0.0000 -0.0544
vn -0.3083 0.0168 0.9512
vn -0.9842 -0.1609 0.0737
vn -0.9377 0.3325 -0.1007
vn -0.5675 0.7882 0.2381
vn 0.9994 0.0308 0.0153
vn -0.8850 0.4624 -0.0551
vn -0.4043 0.9140 0.0327
usemtl Material
s off
f 9/1/1 8/2/1 3/3/1
f 10/4/2 4/5/2 7/6/2
f 58/7/3 55/8/3 2/9/3
f 20/10/2 10/4/2 16/11/2
f 19/12/1 18/13/1 9/1/1
f 77/14/4 5/15/4 6/16/4 76/17/4
f 79/18/2 20/10/2 5/19/2 77/20/2
f 8/2/1 12/21/1 13/22/1
f 18/13/1 21/23/1 12/21/1 8/2/1 9/1/1
f 7/6/2 14/24/2 11/25/2
f 16/11/2 10/4/2 7/6/2 11/25/2 22/26/2
f 63/27/1 62/28/1 35/29/1
f 35/29/1 36/30/1 21/23/1 18/13/1
f 76/31/1 78/32/1 17/33/1
f 68/34/2 33/35/2 66/36/2
f 33/35/2 16/11/2 22/26/2 34/37/2
f 71/38/4 15/39/4 17/40/4 73/41/4
f 45/42/2 46/43/2 26/44/2 23/45/2
f 43/46/1 24/47/1 25/48/1 47/49/1
f 82/50/2 72/51/2 4/5/2 10/4/2 20/10/2 79/18/2
f 49/52/2 45/42/2 23/45/2 39/53/2 38/54/2
f 44/55/1 37/56/1 40/57/1 24/47/1 43/46/1
f 70/58/1 59/59/1 63/27/1
f 54/60/3 41/61/3 42/62/3 2/9/3 55/8/3
f 66/36/2 33/35/2 34/37/2 50/63/2 52/64/2 64/65/2
f 62/28/1 65/66/1 51/67/1 48/68/1 36/30/1 35/29/1
f 14/24/2 30/69/2 32/70/2 46/43/2 45/42/2 11/25/2
f 22/26/2 11/25/2 45/42/2 49/52/2
f 12/21/1 43/46/1 47/49/1 31/71/1 29/72/1 13/22/1
f 21/23/1 44/55/1 43/46/1 12/21/1
f 69/73/2 68/34/2 60/74/2
f 70/75/5 61/76/5 67/77/5 69/78/5
f 58/7/6 59/79/6 70/75/6 69/78/6 60/80/6 56/81/6 1/82/6 55/8/6
f 5/15/4 57/83/4 53/84/4 6/16/4
f 61/85/1 70/58/1 53/86/1
f 5/19/2 20/10/2 16/11/2 33/35/2 68/34/2 69/73/2 57/87/2
f 57/87/2 69/73/2 67/88/2
f 60/74/2 68/34/2 66/36/2 56/89/2
f 56/89/2 66/36/2 64/65/2 41/90/2 54/91/2
f 53/86/1 70/58/1 63/27/1 35/29/1 18/13/1 19/12/1 6/92/1
f 58/93/1 2/94/1 62/28/1 63/27/1 59/59/1
f 2/94/1 42/95/1 65/66/1 62/28/1
f 57/83/4 67/96/4 61/97/4 53/84/4
f 78/32/1 81/98/1 73/99/1 17/33/1
f 71/100/2 82/50/2 79/18/2 15/101/2
f 19/12/1 9/1/1 3/3/1 74/102/1 81/98/1 78/32/1
f 15/101/2 79/18/2 77/20/2
f 15/39/4 77/14/4 76/17/4 17/40/4
f 6/92/1 19/12/1 78/32/1 76/31/1
f 75/103/2 86/104/2 85/105/2 72/51/2 82/50/2
f 81/98/1 74/102/1 84/106/1 83/107/1 80/108/1
f 80/109/7 83/110/7 86/111/7 75/112/7
f 26/113/8 25/114/8 24/115/8 23/116/8
f 40/117/8 39/118/8 23/116/8 24/115/8
f 39/119/9 40/120/9 37/121/9 38/122/9
f 49/123/10 38/122/10 37/121/10 44/124/10
f 44/124/10 21/125/10 22/126/10 49/123/10
f 36/127/11 34/128/11 22/129/11 21/130/11
f 48/131/11 50/132/11 34/128/11 36/127/11
f 50/132/12 48/131/12 51/133/12 52/134/12
f 65/135/13 64/136/13 52/137/13 51/138/13
f 41/61/13 64/136/13 65/135/13 42/62/13
f 54/60/14 55/8/14 1/82/14 56/81/14
f 76/31/15 81/98/15 82/139/15 71/140/15 73/99/15 17/33/15
f 81/141/16 80/109/16 75/112/16 82/142/16
f 85/143/17 86/111/17 83/110/17 27/144/17 28/145/17
f 27/144/18 84/146/18 74/147/18 9/148/18 3/149/18 8/150/18 10/151/18 7/152/18 4/153/18 72/154/18 85/143/18 28/145/18
f 30/155/19 29/156/19 13/157/19 8/158/19 3/159/19 9/160/19 10/161/19 4/162/19 7/163/19 14/164/19
f 32/165/20 30/166/20 14/167/20 29/168/20 31/169/20
f 46/170/21 32/171/21 31/172/21 47/173/21 25/114/21 26/113/21
